<?xml version="1.0" encoding="utf-8"?>
<!-- Generator: Adobe Illustrator 19.1.1, SVG Export Plug-In . SVG Version: 6.00 Build 0)  -->
<svg version="1.1" id="Layer_1" xmlns="http://www.w3.org/2000/svg" xmlns:xlink="http://www.w3.org/1999/xlink" x="0px" y="0px"
	 viewBox="0 0 203.2 102.7" style="enable-background:new 0 0 203.2 102.7;" xml:space="preserve">
<style type="text/css">
	.st0{fill:#3B6E8F;}
	.st1{fill:#FCAF17;}
	.st2{font-family:'HelveticaNeueLT-LightExt';}
	.st3{font-size:5.4819px;}
</style>
<g>
	<g>
		<g>
			<path class="st0" d="M177.8,14.6c0-2.1-1.5-2.4-2.9-2.4v-0.8l6.9-0.9l0.3,4.2h0.1c1.3-2.4,4.3-4.8,8.5-4.8c3.6,0,9.1,2.1,9.1,11
				v15.5h-4.7V21.3c0-4.2-1.6-7.7-6-7.7c-3,0-5.4,2.2-6.3,4.8c-0.2,0.6-0.3,1.4-0.3,2.2v15.6h-4.7C177.8,36.2,177.8,15.4,177.8,14.6
				"/>
			<path class="st0" d="M61.7,20.7c0.1-2.9-1.2-7.7-6.5-7.7c-4.8,0-6.9,4.4-7.2,7.7H61.7z M47.9,24.1c0.1,6.4,4.1,9,8.8,9
				c3.4,0,5.5-0.6,7.2-1.3l0.9,3.3c-1.7,0.7-4.6,1.6-8.7,1.6c-7.9,0-12.7-5.3-12.7-13.1c0-7.8,4.7-14,12.2-14
				c8.4,0,10.6,7.5,10.6,12.2c0,1-0.1,1.7-0.2,2.2L47.9,24.1z"/>
			<path class="st0" d="M164.9,23c-5.1-0.1-11,0.8-11,5.8c0,3.1,2,4.5,4.4,4.5c3.4,0,5.6-2.1,6.4-4.3c0.2-0.5,0.2-1,0.2-1.5V23z
				 M169.6,30c0,2.2,0.1,4.4,0.4,6.2h-4.2l-0.4-3.3h-0.2c-1.4,2-4.2,3.9-7.9,3.9c-5.2,0-7.9-3.7-7.9-7.5c0-6.3,5.6-9.7,15.6-9.6
				v-0.5c0-2.1-0.6-6.1-5.9-6c-2.5,0-5,0.7-6.8,1.9l-1.1-3.2c2.1-1.3,5.3-2.3,8.6-2.3c8,0,9.9,5.4,9.9,10.6V30z"/>
			<path class="st0" d="M98.1,5.3c0-1.5-1.2-2.7-2.8-2.7c-1.5,0-2.8,1.2-2.8,2.7c0,1.5,1.2,2.8,2.8,2.8C96.9,8,98.1,6.8,98.1,5.3
				 M93,10.3h4.7v25.9H93V10.3z"/>
			<path class="st0" d="M142.8,5.3c0-1.5-1.2-2.7-2.8-2.7c-1.5,0-2.8,1.2-2.8,2.7c0,1.5,1.2,2.8,2.8,2.8
				C141.5,8,142.8,6.8,142.8,5.3 M137.4,10.3h4.7v25.9h-4.7V10.3z"/>
			<path class="st0" d="M77.6,10.4l-6.8,0.9v0.8c1.5,0,2.9,0.4,2.9,3.2c0,1,0,2,0,3.1l-0.1,17.8h4.7V22.4c0-0.8,0.1-1.6,0.2-2.2
				c0.6-3.5,3-6,6.3-6c0.6,0,1.1,0,1.6,0.1V9.9c-0.4-0.1-0.8-0.2-1.3-0.2c-3.2,0-6,2.2-7.2,5.7h-0.2L77.6,10.4z"/>
			<path class="st0" d="M119.6,10.5c3.9,2,3.2,6.6,3.2,6.6c-1.1-2.1-3.3-3.7-6.1-3.7c-4.9,0-7.8,4.3-7.8,10c0,5.3,2.6,9.6,7.7,9.6
				c3.1,0,6-2.1,6.9-5.6c0.2-0.6,0.2-1.3,0.2-2V0h4.7v29.5c0,2.3,0,4.9,0.2,6.7h-4.2l-0.2-4.5H124c-1.4,2.9-4.5,5.1-8.8,5.1
				c-6.3,0-11.1-5.3-11.1-13.2c0-8.7,5.4-13.9,11.6-13.9C116.7,9.7,118.4,9.9,119.6,10.5"/>
			<path class="st0" d="M3.4,3.1C3.5,0.9,0,1.3,0,1.3V0.2h9.5l6.1,17.4c1.5,4.4,2.7,8.4,3.6,12.1h0.1c1-3.6,2.2-7.6,3.9-12.1
				l6.4-17.4h5.9l2.2,36h-4.6l-0.8-15.8c-0.3-5-0.6-11.1-0.6-15.6h-0.1C30.4,9,29,13.6,27.2,18.5L20.8,36h-3.5l-5.9-17.2
				c-1.7-5.1-3.1-9.7-4.1-14H7.2C7.1,9.3,6.8,15.3,6.5,20.8l-1,15.5H1.1L3.4,3.1z"/>
			<path class="st1" d="M12.3,56.2L12.3,56.2L12.3,56.2z M184.9,55.5c-0.1,0.1-5.9,9.7-19.2,19.1c-12.3,8.7-33.7,19.1-65.8,19.1
				c-32.1,0-53.5-10.4-65.8-19.1c-13.3-9.5-19.2-19-19.2-19.1c-0.3-0.6-0.8-1.2-1.6-0.9c-0.3,0.1-0.6,0.3-0.8,0.6
				c-0.1,0.2-0.2,0.4-0.2,0.7c0,0.1,0,0.3,0.1,0.4l0.1,0.3c0.4,0.7,1,1.9,1.9,3.5c0.1,0.1,6,10.8,19.4,21.4
				c7.9,6.2,16.8,11.1,26.5,14.7c12.1,4.4,25.5,6.7,39.7,6.7c14.2,0,27.6-2.2,39.7-6.7c9.7-3.5,18.6-8.5,26.5-14.7
				c13.4-10.6,19.3-21.3,19.4-21.4c0.7-1.2,1.4-2.4,1.9-3.5c0,0,0.1-0.3,0.1-0.3c0.1-0.4,0-0.8-0.1-1.1c-0.2-0.3-0.5-0.5-0.8-0.6
				C185.7,54.3,185.3,54.9,184.9,55.5"/>
		</g>
		<text transform="matrix(1 0 0 1 199.793 11.4989)" class="st0 st2 st3">™</text>
	</g>
</g>
</svg>
