<?xml version="1.0" encoding="utf-8"?>
<!-- Generator: Adobe Illustrator 19.1.1, SVG Export Plug-In . SVG Version: 6.00 Build 0)  -->
<svg version="1.1" id="Layer_1" xmlns="http://www.w3.org/2000/svg" xmlns:xlink="http://www.w3.org/1999/xlink" x="0px" y="0px"
	 viewBox="0 0 20 20" style="enable-background:new 0 0 20 20;" xml:space="preserve">
<style type="text/css">
	.st0{fill-rule:evenodd;clip-rule:evenodd;fill:#999999;}
	.st1{fill:#FFFFFF;}
</style>
<g>
	<path class="st0" d="M3,0h14c1.7,0,3,1.3,3,3v14c0,1.7-1.3,3-3,3H3c-1.7,0-3-1.3-3-3V3C0,1.3,1.3,0,3,0z"/>
	<g>
		<path class="st1" d="M10.9,12.8h-2c0-0.3,0-0.5,0-0.5c0-0.6,0.1-1.2,0.3-1.6c0.2-0.4,0.6-0.9,1.3-1.4c0.6-0.5,1-0.9,1.1-1
			C11.9,8,12,7.7,12,7.4c0-0.4-0.2-0.8-0.5-1.1s-0.8-0.5-1.4-0.5c-0.6,0-1,0.2-1.4,0.5C8.3,6.7,8,7.2,7.9,7.8l-2-0.3
			c0.1-0.9,0.5-1.7,1.2-2.4c0.7-0.7,1.7-1,2.9-1c1.3,0,2.3,0.3,3,1c0.7,0.7,1.1,1.4,1.1,2.3c0,0.5-0.1,0.9-0.4,1.4
			c-0.3,0.4-0.9,1-1.8,1.8c-0.5,0.4-0.8,0.7-0.9,0.9S10.9,12.2,10.9,12.8z M8.9,15.8v-2.2h2.2v2.2H8.9z"/>
	</g>
</g>
</svg>
