<?xml version="1.0" encoding="utf-8"?>
<!-- Generator: Adobe Illustrator 19.1.1, SVG Export Plug-In . SVG Version: 6.00 Build 0)  -->
<svg version="1.1" id="Layer_1" xmlns="http://www.w3.org/2000/svg" xmlns:xlink="http://www.w3.org/1999/xlink" x="0px" y="0px"
	 viewBox="0 0 48 45" style="enable-background:new 0 0 48 45;" xml:space="preserve">
<style type="text/css">
	.st0{fill:#3C7497;}
</style>
<g>
	<path class="st0" d="M37,43c-4.3,0-8.5-1-11-2.8c0,0.1,0,0.2,0,0.3C26,43,30.9,45,37,45s11-2,11-4.5c0-0.1,0-0.2,0-0.3
		C45.5,42,41.3,43,37,43z"/>
	<path class="st0" d="M37,39c-4.3,0-8.5-1-11-2.8c0,0.1,0,0.2,0,0.3C26,39,30.9,41,37,41s11-2,11-4.5c0-0.1,0-0.2,0-0.3
		C45.5,38,41.3,39,37,39z"/>
	<path class="st0" d="M11,43c-4.3,0-8.5-1-11-2.8c0,0.1,0,0.2,0,0.3C0,43,4.9,45,11,45s11-2,11-4.5c0-0.1,0-0.2,0-0.3
		C19.5,42,15.3,43,11,43z"/>
	<path class="st0" d="M11,39c-4.3,0-8.5-1-11-2.8c0,0.1,0,0.2,0,0.3C0,39,4.9,41,11,41s11-2,11-4.5c0-0.1,0-0.2,0-0.3
		C19.5,38,15.3,39,11,39z"/>
	<path class="st0" d="M37,35c-4.3,0-8.5-1-11-2.8c0,0.1,0,0.2,0,0.3C26,35,30.9,37,37,37s11-2,11-4.5c0-0.1,0-0.2,0-0.3
		C45.5,34,41.3,35,37,35z"/>
	<path class="st0" d="M37,31c-4.3,0-8.5-1-11-2.8c0,0.1,0,0.2,0,0.3C26,31,30.9,33,37,33s11-2,11-4.5c0-0.1,0-0.2,0-0.3
		C45.5,30,41.3,31,37,31z"/>
	<path class="st0" d="M37,27c-4.3,0-8.5-1-11-2.8c0,0.1,0,0.2,0,0.3C26,27,30.9,29,37,29s11-2,11-4.5c0-0.1,0-0.2,0-0.3
		C45.5,26,41.3,27,37,27z"/>
	<path class="st0" d="M37,23c-4.3,0-8.5-1-11-2.8c0,0.1,0,0.2,0,0.3C26,23,30.9,25,37,25s11-2,11-4.5c0-0.1,0-0.2,0-0.3
		C45.5,22,41.3,23,37,23z"/>
	<path class="st0" d="M37,19c-4.3,0-8.5-1-11-2.8c0,0.1,0,0.2,0,0.3C26,19,30.9,21,37,21s11-2,11-4.5c0-0.1,0-0.2,0-0.3
		C45.5,18,41.3,19,37,19z"/>
	<path class="st0" d="M37,15c-4.3,0-8.5-1-11-2.8c0,0.1,0,0.2,0,0.3C26,15,30.9,17,37,17s11-2,11-4.5c0-0.1,0-0.2,0-0.3
		C45.5,14,41.3,15,37,15z"/>
	<path class="st0" d="M37,11c-4.3,0-8.5-1-11-2.8c0,0.1,0,0.2,0,0.3C26,11,30.9,13,37,13s11-2,11-4.5c0-0.1,0-0.2,0-0.3
		C45.5,10,41.3,11,37,11z"/>
	<ellipse class="st0" cx="37" cy="4.5" rx="11" ry="4.5"/>
	<path class="st0" d="M18,29c-2,1.3-4.4,2.1-7,2.1S6,30.3,4,29c-2.4,0.8-4,2.1-4,3.5C0,35,4.9,37,11,37s11-2,11-4.5
		C22,31.1,20.5,29.9,18,29z"/>
	<path class="st0" d="M11,7C4.9,7,0,11.9,0,18s4.9,11,11,11s11-4.9,11-11S17.1,7,11,7z M11.3,17C14,17.8,16,18.8,16,21
		c0,1-0.2,3.6-4,4V27h-2v-2.1c-3.8-0.4-4-3-4-3.7L8,21c0,1.1,0.9,2.1,3,2.1c1.7,0,3-0.7,3-1.9c0-1.4-1.5-1.8-3.3-2.3
		C6.7,17.8,6,16.4,6,15c0-1.2,0.4-3.6,4-4V9h2v2.1c2.8,0.4,4,2.3,4,3.7L14,15c0-1.2-1.3-2.1-3-2.1s-3,0.8-3,1.9
		C8,16.1,9.7,16.6,11.3,17z"/>
</g>
</svg>
