<?xml version="1.0" encoding="utf-8"?>
<!-- Generator: Adobe Illustrator 19.1.1, SVG Export Plug-In . SVG Version: 6.00 Build 0)  -->
<svg version="1.1" id="Layer_1" xmlns="http://www.w3.org/2000/svg" xmlns:xlink="http://www.w3.org/1999/xlink" x="0px" y="0px"
	 viewBox="0 0 81.2 96.1" style="enable-background:new 0 0 81.2 96.1;" xml:space="preserve">
<style type="text/css">
	.st0{fill:#3C7497;}
	.st1{fill:#FFFFFF;}
</style>
<g>
	<path class="st0" d="M40.7,0C19.8,0,6.1,15.7,6.1,36.5c0,1,0.6,1.3,0.7,3.8C6.9,42.8,1,54.9,0.3,56.9c-0.7,1.8-0.3,5.1,2.5,5
		c3.4-0.1,3.8,2.1,2.1,3.3c-0.8,0.6,0,3,0.5,3.4C5.9,68.9,9,70,9.2,70.1c0.2,0.2-1.1,1-1.6,1.8C7.2,72.6,8.2,75,8.2,75
		s1,0.6,2.7,1.8c2,1.3,0.2,5.7,0.2,7c0,1.3,1.8,5.7,6.2,5.7c4.5,0,12-2.9,12-2.9l2,9.6c1.5-0.5,26.5-8.4,32.9-10.3
		c0.7-0.2,1.4-0.4,2.1-0.6l-1.7-13c4.4-7.3,14.9-18.7,16.1-29.8C84.6,14,64.7,0,40.7,0z"/>
	<g>
		<path class="st1" d="M59.1,41.3L46.5,19.4c-0.6-1.1-1.8-1.8-3.1-1.8c-1.3,0-2.5,0.7-3.1,1.8L27.6,41.3c-0.6,1.1-0.6,2.5,0,3.6
			c0.6,1.1,1.8,1.8,3.1,1.8h25.2c1.3,0,2.5-0.7,3.1-1.8C59.7,43.7,59.7,42.4,59.1,41.3z M43.3,41.6c-1.1,0-2-0.9-2-2.1
			c0-1.1,0.9-2,2-2c1.1,0,2.1,0.9,2.1,2C45.4,40.7,44.5,41.6,43.3,41.6z M45.3,34.2c0,1.1-0.9,2-2,2c-1.1,0-2-0.9-2-2L40.9,27
			c0-1.3,1.1-2.4,2.4-2.4c1.3,0,2.4,1.1,2.5,2.4L45.3,34.2z"/>
	</g>
</g>
</svg>
