<?xml version="1.0" encoding="utf-8"?>
<!-- Generator: Adobe Illustrator 19.1.1, SVG Export Plug-In . SVG Version: 6.00 Build 0)  -->
<svg version="1.1" id="Layer_1" xmlns="http://www.w3.org/2000/svg" xmlns:xlink="http://www.w3.org/1999/xlink" x="0px" y="0px"
	 viewBox="0 0 65.1 63.6" style="enable-background:new 0 0 65.1 63.6;" xml:space="preserve">
<style type="text/css">
	.st0{fill:#3B7496;}
</style>
<g>
	<polygon class="st0" points="4.5,11.9 4.5,59.1 58,59.1 58,63.6 0,63.6 0,11.9 	"/>
	<path class="st0" d="M58.6,5.8v5.1c0,2.5-2,4.5-4.5,4.5c-2.5,0-4.5-2-4.5-4.5V5.8h-27v5.1c0,2.5-2,4.5-4.5,4.5
		c-2.5,0-4.5-2-4.5-4.5V5.8H7.2v50.8h57.9V5.8H58.6z M61.2,52.7H11.1V19.8h50.2V52.7z M18.1,12.9c1.1,0,1.9-0.9,1.9-1.9v-9
		c0-1.1-0.9-1.9-1.9-1.9c-1.1,0-1.9,0.9-1.9,1.9v9C16.2,12,17.1,12.9,18.1,12.9z M54.1,12.9c1.1,0,1.9-0.9,1.9-1.9v-9
		c0-1.1-0.9-1.9-1.9-1.9c-1.1,0-1.9,0.9-1.9,1.9v9C52.2,12,53.1,12.9,54.1,12.9z M30.2,23.1h-6.6v5.2h6.6V23.1z M39.5,23.1h-6.6v5.2
		h6.6V23.1z M48.7,23.1h-6.6v5.2h6.6V23.1z M58,23.1h-6.6v5.2H58V23.1z M20.9,30.4h-6.6v5.2h6.6V30.4z M30.2,30.4h-6.6v5.2h6.6V30.4
		z M39.5,30.4h-6.6v5.2h6.6V30.4z M48.7,30.4h-6.6v5.2h6.6V30.4z M58,30.4h-6.6v5.2H58V30.4z M20.9,37.7h-6.6v5.2h6.6V37.7z
		 M30.2,37.7h-6.6v5.2h6.6V37.7z M39.5,37.7h-6.6v5.2h6.6V37.7z M48.7,37.7h-6.6v5.2h6.6V37.7z M58,37.7h-6.6v5.2H58V37.7z M20.9,45
		h-6.6v5.2h6.6V45z M30.2,45h-6.6v5.2h6.6V45z M39.5,45h-6.6v5.2h6.6V45z M48.7,45h-6.6v5.2h6.6V45z"/>
</g>
</svg>
