<?xml version="1.0" encoding="utf-8"?>
<!-- Generator: Adobe Illustrator 19.1.1, SVG Export Plug-In . SVG Version: 6.00 Build 0)  -->
<svg version="1.1" id="Layer_1" xmlns="http://www.w3.org/2000/svg" xmlns:xlink="http://www.w3.org/1999/xlink" x="0px" y="0px"
	 viewBox="0 0 45 48" style="enable-background:new 0 0 45 48;" xml:space="preserve">
<style type="text/css">
	.st0{fill:#3B7496;}
</style>
<g>
	<path class="st0" d="M24,0c-6.6,0-12,5.4-12,12s5.4,12,12,12s12-5.4,12-12S30.6,0,24,0z M29.2,9l-2.4,0.2V9c0-1.1-1.2-1.9-2.8-1.9
		c-1.6,0-2.8,0.7-2.8,1.7c0,1.2,1.6,1.6,3.1,2c2.5,0.7,4.9,1.7,4.9,4.1c0,2.5-1.5,3.9-4.2,4.2V21h-2v-1.9c-3.9-0.4-4.2-3.1-4.2-3.9
		V15l2.4-0.2V15c0,0.9,0.7,1.9,2.8,1.9c1.3,0,2.8-0.4,2.8-1.7c0-1.2-1.3-1.6-3-2l-0.2-0.1c-4.3-1.2-4.8-2.7-4.8-4.1
		c0-1.5,0.6-3.8,4.2-4.2V3h2v1.9c3,0.4,4.2,2.5,4.2,3.9V9z"/>
	<path class="st0" d="M44.6,29.9c-1.1-1.7-3.5-0.5-3.5-0.5L32,34H22c-0.6,0-1-0.4-1-1c0-0.6,0.4-1,1-1h7.5c1.4,0,2.5-1.1,2.5-2.5
		c0-1.4-1.1-2.5-2.5-2.5H19.2c-1.7,0-3.4,0.6-4.8,1.4l-5.5,3.1l3.8,10.2l19.6-1.6c0.5,0,1-0.2,1.4-0.5l10.1-6.4
		C43.7,33.2,45.9,31.9,44.6,29.9z"/>
	<polygon class="st0" points="5.4,48 12,45.5 6.6,30.9 0,33.5 	"/>
</g>
</svg>
