<?xml version="1.0" encoding="utf-8"?>
<!-- Generator: Adobe Illustrator 19.1.1, SVG Export Plug-In . SVG Version: 6.00 Build 0)  -->
<svg version="1.1" id="Layer_1" xmlns="http://www.w3.org/2000/svg" xmlns:xlink="http://www.w3.org/1999/xlink" x="0px" y="0px"
	 viewBox="0 0 106.5 102" style="enable-background:new 0 0 106.5 102;" xml:space="preserve">
<style type="text/css">
	.st0{fill:#3C7497;}
</style>
<g>
	<path class="st0" d="M44.8,11.9h16.9c1.6,0,2.1-1,1-2.3l-7.5-8.7c-1.1-1.2-2.8-1.2-3.9,0l-7.5,8.7C42.7,10.9,43.2,11.9,44.8,11.9z"
		/>
	<path class="st0" d="M1,26.4l8.4,6.1c0.4,0.3,2.5,1.7,3.5,1.7h13.6h9.7h13.6c0,0,0.1,0,0.1,0h14.8V18c0-1.7-1.3-3-3-3H44.9
		c0,0,0,0,0,0h-8.7h-9.7H12.9c-1,0-3.1,1.4-3.5,1.7L1,22.8C-0.3,23.8-0.3,25.4,1,26.4z"/>
	<path class="st0" d="M105.5,45.5l-8.4-6.1c-0.4-0.3-2.5-1.7-3.5-1.7l-51.7,0v19.2l51.7,0c1,0,3.1-1.4,3.5-1.7l8.4-6.1
		C106.8,48.1,106.8,46.5,105.5,45.5z"/>
	<path class="st0" d="M9.4,62L1,68.2c-1.3,1-1.3,2.6,0,3.5l8.4,6.1c0.4,0.3,2.5,1.7,3.5,1.7l51.7,0V60.4l-51.7,0
		C11.9,60.4,9.8,61.8,9.4,62z"/>
	<path class="st0" d="M41.9,99c0,1.7,1.3,3,3,3h16.7c1.7,0,3-1.3,3-3V83H41.9V99z"/>
</g>
</svg>
