<?xml version="1.0" encoding="utf-8"?>
<!-- Generator: Adobe Illustrator 19.1.1, SVG Export Plug-In . SVG Version: 6.00 Build 0)  -->
<svg version="1.1" id="Layer_1" xmlns="http://www.w3.org/2000/svg" xmlns:xlink="http://www.w3.org/1999/xlink" x="0px" y="0px"
	 viewBox="0 0 74.1 76.3" style="enable-background:new 0 0 74.1 76.3;" xml:space="preserve">
<style type="text/css">
	.st0{fill:#3B7496;}
</style>
<g>
	<path class="st0" d="M8.1,75.6c0,0.4,0.3,0.7,0.7,0.7h6.5c0.4,0,0.7-0.3,0.7-0.7V73h-8V75.6z"/>
	<path class="st0" d="M58,75.6c0,0.4,0.3,0.7,0.7,0.7h6.5c0.4,0,0.7-0.3,0.7-0.7V73h-8V75.6z"/>
	<path class="st0" d="M29.8,19.3c0.1-0.1,0.2-0.2,0.3-0.2c0.2-0.1,0.4-0.2,0.6-0.3c0.1-0.1,0.2-0.1,0.4-0.2c0.2-0.1,0.5-0.2,0.7-0.2
		c0.1,0,0.2-0.1,0.3-0.1c0.4-0.1,0.7-0.1,1.1-0.1H66V8.1H8.1v4.5V64H66v-5.5H33.3c-3.3,0-6-2.7-6-6V24.2
		C27.3,22.2,28.3,20.4,29.8,19.3z"/>
	<path class="st0" d="M73.8,34.2V20.7H33.3c-0.1,0-0.2,0-0.3,0c0,0,0,0,0,0c-1.7,0.2-3.1,1.6-3.1,3.4v28.3c0,1.9,1.5,3.4,3.4,3.4
		h40.5V34.2z M51.8,54c-8.7,0-15.7-7-15.7-15.7c0-5.9,3.2-11,8-13.7c0.1-0.1,0.2-0.1,0.3-0.2c0.4-0.2,0.8-0.4,1.2-0.6
		c0.1,0,0.1-0.1,0.2-0.1c0.4-0.1,0.7-0.3,1.1-0.4c0.1,0,0.2-0.1,0.3-0.1c0.4-0.1,0.9-0.2,1.3-0.3c0,0,0.1,0,0.1,0
		c0.4-0.1,0.8-0.1,1.3-0.2c0.1,0,0.2,0,0.4,0c0.5,0,0.9-0.1,1.4-0.1c0.5,0,1,0,1.5,0.1c0.1,0,0.3,0,0.4,0c0.3,0,0.7,0.1,1,0.2
		c0.1,0,0.3,0.1,0.4,0.1c0.4,0.1,0.8,0.2,1.2,0.3c0,0,0.1,0,0.1,0c0.4,0.1,0.9,0.3,1.3,0.5c0.1,0.1,0.2,0.1,0.4,0.2
		c0.3,0.1,0.6,0.3,0.9,0.4c0.1,0.1,0.3,0.1,0.4,0.2c0.3,0.2,0.7,0.4,1,0.6c0.1,0,0.1,0.1,0.2,0.1c0.4,0.3,0.7,0.5,1.1,0.8
		c0.1,0.1,0.2,0.2,0.3,0.2c0.3,0.2,0.5,0.4,0.7,0.7c0.1,0.1,0.2,0.2,0.3,0.3c0.3,0.3,0.5,0.5,0.7,0.8c0.1,0.1,0.1,0.1,0.2,0.2
		c0.3,0.4,0.6,0.7,0.8,1.1c0.1,0.1,0.1,0.2,0.2,0.3c0.2,0.3,0.4,0.6,0.5,0.9c0.1,0.1,0.1,0.2,0.2,0.4c0.2,0.3,0.3,0.6,0.5,1
		c0,0.1,0.1,0.2,0.1,0.3c0.8,1.9,1.2,3.9,1.2,6C67.5,47,60.5,54,51.8,54z"/>
	<circle class="st0" cx="51.8" cy="38.3" r="7.3"/>
	<path class="st0" d="M51.5,28.9h0.6c0.2,0,0.4-0.2,0.4-0.4V28v-3.5c0-0.2-0.2-0.4-0.4-0.4h-0.6c-0.2,0-0.4,0.2-0.4,0.4v3v1
		C51.1,28.8,51.3,28.9,51.5,28.9z"/>
	<path class="st0" d="M52.1,47.5h-0.6c-0.2,0-0.4,0.2-0.4,0.4v4c0,0.2,0.2,0.4,0.4,0.4h0.6c0.2,0,0.4-0.2,0.4-0.4v-4
		C52.5,47.7,52.3,47.5,52.1,47.5z"/>
	<path class="st0" d="M46.4,30.2c0.1,0.2,0.3,0.3,0.5,0.1l0.5-0.3c0.2-0.1,0.3-0.3,0.1-0.5l-2-3.5c-0.1-0.2-0.3-0.3-0.5-0.1
		l-0.5,0.3c-0.2,0.1-0.3,0.3-0.1,0.5L46.4,30.2z"/>
	<path class="st0" d="M57.2,46.3c-0.1-0.2-0.3-0.3-0.5-0.1l-0.5,0.3c-0.2,0.1-0.3,0.3-0.1,0.5l2,3.5c0.1,0.2,0.3,0.3,0.5,0.1
		l0.5-0.3c0.2-0.1,0.2-0.3,0.1-0.5L57.2,46.3z"/>
	<path class="st0" d="M40.3,30.8c-0.2-0.1-0.4,0-0.5,0.1l-0.3,0.5c-0.1,0.2,0,0.4,0.1,0.5l3.5,2c0.2,0.1,0.4,0,0.5-0.1l0.3-0.5
		c0.1-0.2,0-0.4-0.1-0.5L40.3,30.8z"/>
	<path class="st0" d="M60.5,42.5c-0.2-0.1-0.4,0-0.5,0.1l-0.3,0.5c-0.1,0.2,0,0.4,0.1,0.5l3.5,2c0.2,0.1,0.4,0,0.5-0.1l0.3-0.5
		c0.1-0.2,0-0.4-0.1-0.5L60.5,42.5z"/>
	<path class="st0" d="M42.5,38.5v-0.6c0-0.2-0.2-0.4-0.4-0.4h-4c-0.2,0-0.4,0.2-0.4,0.4v0.6c0,0.2,0.2,0.4,0.4,0.4h4
		C42.4,38.9,42.5,38.7,42.5,38.5z"/>
	<path class="st0" d="M65.5,37.5h-4c-0.2,0-0.4,0.2-0.4,0.4v0.6c0,0.2,0.2,0.4,0.4,0.4h4c0.2,0,0.4-0.2,0.4-0.4v-0.6
		C65.9,37.7,65.7,37.5,65.5,37.5z"/>
	<path class="st0" d="M43.6,42.6c-0.1-0.2-0.3-0.3-0.5-0.1l-3.5,2c-0.2,0.1-0.3,0.3-0.1,0.5l0.3,0.5c0.1,0.2,0.3,0.3,0.5,0.1l3.5-2
		c0.2-0.1,0.3-0.3,0.1-0.5L43.6,42.6z"/>
	<path class="st0" d="M60,33.8c0.1,0.2,0.3,0.3,0.5,0.1l3.5-2c0.1,0,0.1-0.1,0.1-0.2c0,0,0,0,0,0c0,0,0,0,0-0.1c0,0,0,0,0-0.1
		c0-0.1,0-0.2,0-0.3l-0.3-0.5c0-0.1-0.1-0.1-0.2-0.2c0,0,0,0-0.1,0c0,0,0,0-0.1,0c-0.1,0-0.1,0-0.2,0.1l-0.9,0.5c0,0,0,0,0,0
		l-2.6,1.5c-0.2,0.1-0.2,0.3-0.1,0.5L60,33.8z"/>
	<path class="st0" d="M46.9,46.1c-0.2-0.1-0.4,0-0.5,0.1l-2,3.5c-0.1,0.2,0,0.4,0.1,0.5l0.5,0.3c0.2,0.1,0.4,0,0.5-0.1l2-3.5
		c0.1-0.2,0-0.4-0.1-0.5L46.9,46.1z"/>
	<path class="st0" d="M74.1,3.2c0-1.8-1.4-3.2-3.2-3.2H3.2C1.4,0,0,1.4,0,3.2v7.7v58c0,1.8,1.4,3.2,3.2,3.2h67.7
		c1.8,0,3.2-1.4,3.2-3.2V58.5h-5.6v8h-63V12V5.6h63v12.6h5.6V3.2z"/>
	<path class="st0" d="M58.6,25.9c-0.1,0-0.1-0.1-0.2-0.1c0,0,0,0-0.1,0c0,0,0,0-0.1,0c-0.1,0-0.2,0.1-0.2,0.2l-1.9,3.3l0,0l-0.1,0.2
		c-0.1,0.2,0,0.4,0.1,0.5l0.5,0.3c0.2,0.1,0.4,0,0.5-0.1l0.3-0.4l0,0l1.8-3c0.1-0.2,0-0.4-0.1-0.5L58.6,25.9z"/>
</g>
</svg>
