<?xml version="1.0" encoding="UTF-8"?>
<svg width="16px" height="18px" viewBox="0 0 16 18" version="1.1" xmlns="http://www.w3.org/2000/svg" xmlns:xlink="http://www.w3.org/1999/xlink">
    <!-- Generator: Sketch 52.2 (67145) - http://www.bohemiancoding.com/sketch -->
    <title>Motusbank-PPC-Calendar-Icon-Carbon</title>
    <desc>Created with Sketch.</desc>
    <g id="Wires" stroke="none" stroke-width="1" fill="none" fill-rule="evenodd">
        <g id="1200-Prepayment-Default" transform="translate(-466.000000, -620.000000)" fill="#414042" fill-rule="nonzero">
            <g id="Estimate-your-Prepayment-Penalty" transform="translate(158.000000, 45.000000)">
                <g id="Inputs" transform="translate(24.000000, 86.000000)">
                    <g id="Maturity-Date" transform="translate(0.000000, 453.000000)">
                        <g id="text-input" transform="translate(0.000000, 35.000000)">
                            <path d="M287.2,11.6666667 L288.266667,11.6666667 C288.856,11.6666667 289.333333,11.1887843 289.333333,10.5999739 L289.333333,9.53333333 C289.333333,8.944 288.856,8.46666667 288.266667,8.46666667 L287.2,8.46666667 C286.610667,8.46666667 286.133333,8.944 286.133333,9.53333333 L286.133333,10.5999739 C286.133333,11.1887843 286.610667,11.6666667 287.2,11.6666667 Z M287.2,9.53333333 L288.266667,9.53333333 L288.266667,10.5999739 L287.2,10.5999739 L287.2,9.53333333 Z M295.733333,15.9333072 L296.8,15.9333072 C297.389333,15.9333072 297.866693,15.4559739 297.866693,14.8666667 L297.866693,13.8 C297.866693,13.2106928 297.389333,12.7333595 296.8,12.7333595 L295.733333,12.7333595 C295.144549,12.7333595 294.666667,13.2106928 294.666667,13.8 L294.666667,14.8666667 C294.666667,15.4559739 295.144,15.9333072 295.733333,15.9333072 Z M295.733333,13.8 L296.8,13.8 L296.8,14.8666667 L295.733333,14.8666667 L295.733333,13.8 Z M295.733333,11.6666667 L296.8,11.6666667 C297.389333,11.6666667 297.866693,11.1887843 297.866693,10.5999739 L297.866693,9.53333333 C297.866693,8.944 297.389333,8.46666667 296.8,8.46666667 L295.733333,8.46666667 C295.144549,8.46666667 294.666667,8.944 294.666667,9.53333333 L294.666667,10.5999739 C294.666667,11.1887843 295.144,11.6666667 295.733333,11.6666667 Z M295.733333,9.53333333 L296.8,9.53333333 L296.8,10.5999739 L295.733333,10.5999739 L295.733333,9.53333333 Z M297.866693,2.06666667 L295.733333,2.06666667 L295.733333,1.53333333 C295.733333,1.2389281 295.494405,1 295.200026,1 C294.905647,1 294.666693,1.2389281 294.666693,1.53333333 L294.666693,2.06666667 L289.333359,2.06666667 L289.333359,1.53333333 C289.333333,1.2389281 289.094405,1 288.8,1 C288.505595,1 288.266667,1.2389281 288.266667,1.53333333 L288.266667,2.06666667 L286.133333,2.06666667 C284.955216,2.06666667 284,3.02188235 284,4.2 L284,15.9333072 C284,17.111451 284.955216,18.0666928 286.133333,18.0666928 L297.866667,18.0666928 C299.044784,18.0666928 300,17.1114771 300,15.9333072 L300,4.2 C300,3.02185621 299.04481,2.06666667 297.866693,2.06666667 Z M298.933359,15.9333072 C298.933359,16.5226667 298.456026,17 297.866693,17 L286.133333,17 C285.544,17 285.066667,16.5221176 285.066667,15.9333072 L285.066667,6.33333333 L298.933359,6.33333333 L298.933333,15.9333072 L298.933359,15.9333072 Z M298.933359,5.26666667 L285.066667,5.26666667 L285.066667,4.2 C285.066667,3.61066667 285.544,3.13333333 286.133333,3.13333333 L288.266667,3.13333333 L288.266667,3.66666667 C288.266667,3.9610719 288.505595,4.2 288.8,4.2 C289.094405,4.2 289.333333,3.9610719 289.333333,3.66666667 L289.333333,3.13333333 L294.666667,3.13333333 L294.666667,3.66666667 C294.666667,3.9610719 294.905621,4.2 295.2,4.2 C295.494379,4.2 295.733333,3.9610719 295.733333,3.66666667 L295.733333,3.13333333 L297.866693,3.13333333 C298.456026,3.13333333 298.933359,3.61066667 298.933359,4.2 L298.933359,5.26666667 Z M291.466667,15.9333072 L292.533333,15.9333072 C293.122667,15.9333072 293.6,15.4559739 293.6,14.8666667 L293.6,13.8 C293.6,13.2106928 293.122667,12.7333595 292.533333,12.7333595 L291.466667,12.7333595 C290.877882,12.7333595 290.4,13.2106928 290.4,13.8 L290.4,14.8666667 C290.4,15.4559739 290.877333,15.9333072 291.466667,15.9333072 Z M291.466667,13.8 L292.533333,13.8 L292.533333,14.8666667 L291.466667,14.8666667 L291.466667,13.8 Z M291.466667,11.6666667 L292.533333,11.6666667 C293.122667,11.6666667 293.6,11.1887843 293.6,10.5999739 L293.6,9.53333333 C293.6,8.944 293.122667,8.46666667 292.533333,8.46666667 L291.466667,8.46666667 C290.877882,8.46666667 290.4,8.944 290.4,9.53333333 L290.4,10.5999739 C290.4,11.1887843 290.877333,11.6666667 291.466667,11.6666667 Z M291.466667,9.53333333 L292.533333,9.53333333 L292.533333,10.5999739 L291.466667,10.5999739 L291.466667,9.53333333 Z M287.2,15.9333072 L288.266667,15.9333072 C288.856,15.9333072 289.333333,15.4559739 289.333333,14.8666667 L289.333333,13.8 C289.333333,13.2106928 288.856,12.7333595 288.266667,12.7333595 L287.2,12.7333595 C286.610667,12.7333595 286.133333,13.2106928 286.133333,13.8 L286.133333,14.8666667 C286.133333,15.4559739 286.610667,15.9333072 287.2,15.9333072 Z M287.2,13.8 L288.266667,13.8 L288.266667,14.8666667 L287.2,14.8666667 L287.2,13.8 Z" id="Motusbank-PPC-Calendar-Icon-Carbon"></path>
                        </g>
                    </g>
                </g>
            </g>
        </g>
    </g>
</svg>